<?xml version="1.0" encoding="utf-8"?>
<svg xmlns="http://www.w3.org/2000/svg" style="margin: auto; background: rgb(0, 0, 0); display: block; shape-rendering: auto;" width="280" height="169" preserveAspectRatio="xMidYMid">
<style type="text/css">
  text {
    text-anchor: middle; font-size: 73px; opacity: 0;
  }
</style>
<g style="transform-origin:140px 84.5px;transform:scale(1)">
<g transform="translate(140,84.5)">
  <g transform="translate(0,0)"><g class="path" style="transform: scale(0.91); transform-origin: -108.695px 8.4554px; animation: 0.714286s linear -0.428571s infinite normal forwards running breath-7dfc6c59-3f39-411e-a23c-532446f4716c;"><path d="M18.91 0.58L18.91 0.58L18.91 0.58Q15.55 0.58 13.58-0.95L13.58-0.95L11.39 10.80L2.70 10.80L9.56-27.45L9.56-27.45Q7.37-27.23 5.91-25.40L5.91-25.40L4.82-26.28L4.82-26.28Q7.01-28.91 10.26-28.91L10.26-28.91L10.26-28.91Q13.50-28.91 15.33-27.34L15.33-27.34L15.33-27.34Q17.15-25.77 17.30-22.92L17.30-22.92L17.30-22.92Q20.51-28.40 25.48-28.40L25.48-28.40L25.48-28.40Q30.44-28.40 33.07-25.59L33.07-25.59L33.07-25.59Q35.70-22.78 35.70-17.88L35.70-17.88L35.70-17.88Q35.70-9.27 31.02-4.34L31.02-4.34L31.02-4.34Q26.35 0.58 18.91 0.58zM16.72-18.18L14.09-3.87L14.09-3.87Q15.33-1.09 18.80-1.09L18.80-1.09L18.80-1.09Q22.26-1.09 24.86-6.93L24.86-6.93L24.86-6.93Q27.45-12.77 27.45-20.88L27.45-20.88L27.45-20.88Q27.45-24.24 26.75-25.48L26.75-25.48L26.75-25.48Q26.06-26.72 24.24-26.72L24.24-26.72L24.24-26.72Q22.41-26.72 20.48-24.53L20.48-24.53L20.48-24.53Q18.54-22.34 17.67-20.40L17.67-20.40L17.67-20.40Q16.79-18.47 16.79-18.18L16.79-18.18L16.72-18.18" fill="#ffffff" stroke="none" stroke-width="none" transform="translate(-127.89501953125,17.510405176336118)" style="fill: rgb(255, 255, 255);"></path></g><g class="path" style="transform: scale(0.91); transform-origin: -74.315px 3.6404px; animation: 0.714286s linear -0.385714s infinite normal forwards running breath-7dfc6c59-3f39-411e-a23c-532446f4716c;"><path d="M50.73 0.66L50.73 0.66Q45.11 0.66 42.19-2.15L42.19-2.15L42.19-2.15Q39.27-4.96 39.27-9.23L39.27-9.23L39.27-9.23Q39.27-13.50 40.04-16.53L40.04-16.53L40.04-16.53Q40.81-19.56 42.56-22.37L42.56-22.37L42.56-22.37Q44.31-25.18 47.85-26.79L47.85-26.79L47.85-26.79Q51.39-28.40 56.68-28.40L56.68-28.40L56.68-28.40Q61.98-28.40 64.93-25.59L64.93-25.59L64.93-25.59Q67.89-22.78 67.89-17.88L67.89-17.88L67.89-17.88Q67.89-9.56 63.47-4.45L63.47-4.45L63.47-4.45Q59.06 0.66 50.73 0.66L50.73 0.66zM47.52-6.86L47.52-6.86L47.52-6.86Q47.52-1.02 50.92-1.02L50.92-1.02L50.92-1.02Q54.31-1.02 56.98-6.90L56.98-6.90L56.98-6.90Q59.64-12.77 59.64-20.88L59.64-20.88L59.64-20.88Q59.64-27.01 56.32-27.01L56.32-27.01L56.32-27.01Q53.00-27.01 50.26-21.43L50.26-21.43L50.26-21.43Q47.52-15.84 47.52-6.86" fill="#ffffff" stroke="none" stroke-width="none" transform="translate(-127.89501953125,17.510405176336118)" style="fill: rgb(255, 255, 255);"></path></g><g class="path" style="transform: scale(0.91); transform-origin: -42.705px 3.3104px; animation: 0.714286s linear -0.342857s infinite normal forwards running breath-7dfc6c59-3f39-411e-a23c-532446f4716c;"><path d="M73-24.89L71.91-25.77L71.91-25.77Q74.09-28.40 77.42-28.40L77.42-28.40L77.42-28.40Q80.74-28.40 82.56-26.72L82.56-26.72L82.56-26.72Q84.39-25.04 84.39-21.97L84.39-21.97L84.39-21.54L84.39-21.54Q87.67-28.40 92.93-28.40L92.93-28.40L92.93-28.40Q98.55-28.40 98.55-22.56L98.55-22.56L98.55-22.56Q98.55-20.15 96.94-17.45L96.94-17.45L96.94-17.45Q95.34-14.75 93.73-12.30L93.73-12.30L93.73-12.30Q92.13-9.85 92.13-7.96L92.13-7.96L90.37-7.96L90.37-7.96Q90.37-10.66 93.51-15.26L93.51-15.26L93.51-15.26Q96.65-19.86 96.65-22.37L96.65-22.37L96.65-22.37Q96.65-24.89 95.67-25.81L95.67-25.81L95.67-25.81Q94.68-26.72 92.75-26.72L92.75-26.72L92.75-26.72Q90.81-26.72 88.95-25.04L88.95-25.04L88.95-25.04Q87.09-23.36 85.85-20.80L85.85-20.80L85.85-20.80Q83.88-17.01 83.22-14.60L83.22-14.60L83.22-14.53L80.59 0L71.83 0L76.65-26.94L76.65-26.94Q74.46-26.72 73-24.89L73-24.89" fill="#ffffff" stroke="none" stroke-width="none" transform="translate(-127.89501953125,17.510405176336118)" style="fill: rgb(255, 255, 255);"></path></g><g class="path" style="transform: scale(0.91); transform-origin: -16.35px -1.7596px; animation: 0.714286s linear -0.3s infinite normal forwards running breath-7dfc6c59-3f39-411e-a23c-532446f4716c;"><path d="M100.89-27.74L104.61-27.74L106.58-38.54L106.58-38.54Q111.98-38.54 114.61-38.98L114.61-38.98L115.56-39.20L115.56-39.20Q114.54-34.09 113.30-27.74L113.30-27.74L122.35-27.74L122.20-26.43L113.08-26.43L113.08-26.43Q109.43-7.59 109.43-3.72L109.43-3.72L109.43-3.72Q109.43-1.39 111.91-1.39L111.91-1.39L111.91-1.39Q114.39-1.39 116.44-4.53L116.44-4.53L116.44-4.53Q118.48-7.66 119.35-11.31L119.35-11.31L120.67-10.88L120.67-10.88Q117.97 0.66 109.50 0.66L109.50 0.66L109.50 0.66Q106.00 0.66 103.66-1.28L103.66-1.28L103.66-1.28Q101.32-3.21 101.32-6.68L101.32-6.68L101.32-6.68Q101.32-10.15 104.32-26.43L104.32-26.43L100.74-26.43L100.89-27.74" fill="#ffffff" stroke="none" stroke-width="none" transform="translate(-127.89501953125,17.510405176336118)" style="fill: rgb(255, 255, 255);"></path></g><g class="path" style="transform: scale(0.91); transform-origin: 7.00498px -3.58459px; animation: 0.714286s linear -0.257143s infinite normal forwards running breath-7dfc6c59-3f39-411e-a23c-532446f4716c;"><path d="M140.74-47.30L140.74-47.30L140.74-47.30Q143.37-47.30 145.09-45.33L145.09-45.33L145.09-45.33Q146.80-43.36 146.80-39.42L146.80-39.42L146.80-39.42Q146.80-35.48 143.66-27.74L143.66-27.74L146.44-27.74L146.29-26.43L143.08-26.43L143.08-26.43Q140.60-20.22 140.60-17.01L140.60-17.01L139.28-17.01L139.28-17.01Q139.28-20.80 141.69-26.43L141.69-26.43L137.46-26.43L137.46-26.43Q135.27-14.96 131.84 5.11L131.84 5.11L123.00 5.11L128.63-26.43L124.17-26.43L124.32-27.74L128.84-27.74L130.01-34.02L130.01-34.02Q131.18-41.24 133.63-44.27L133.63-44.27L133.63-44.27Q136.07-47.30 140.74-47.30zM145.42-39.57L145.42-39.57L145.42-39.57Q145.42-42.19 144.21-44.09L144.21-44.09L144.21-44.09Q143.01-45.99 141.25-45.99L141.25-45.99L141.25-45.99Q140.53-43.14 137.68-27.74L137.68-27.74L142.20-27.74L142.20-27.74Q145.42-35.04 145.42-39.57" fill="#ffffff" stroke="none" stroke-width="none" transform="translate(-127.89501953125,17.510405176336118)" style="fill: rgb(255, 255, 255);"></path></g><g class="path" style="transform: scale(0.91); transform-origin: 31.83px 3.6404px; animation: 0.714286s linear -0.214286s infinite normal forwards running breath-7dfc6c59-3f39-411e-a23c-532446f4716c;"><path d="M156.88 0.66L156.88 0.66Q151.26 0.66 148.34-2.15L148.34-2.15L148.34-2.15Q145.42-4.96 145.42-9.23L145.42-9.23L145.42-9.23Q145.42-13.50 146.18-16.53L146.18-16.53L146.18-16.53Q146.95-19.56 148.70-22.37L148.70-22.37L148.70-22.37Q150.45-25.18 153.99-26.79L153.99-26.79L153.99-26.79Q157.53-28.40 162.83-28.40L162.83-28.40L162.83-28.40Q168.12-28.40 171.08-25.59L171.08-25.59L171.08-25.59Q174.03-22.78 174.03-17.88L174.03-17.88L174.03-17.88Q174.03-9.56 169.62-4.45L169.62-4.45L169.62-4.45Q165.20 0.66 156.88 0.66L156.88 0.66zM153.66-6.86L153.66-6.86L153.66-6.86Q153.66-1.02 157.06-1.02L157.06-1.02L157.06-1.02Q160.45-1.02 163.12-6.90L163.12-6.90L163.12-6.90Q165.78-12.77 165.78-20.88L165.78-20.88L165.78-20.88Q165.78-27.01 162.46-27.01L162.46-27.01L162.46-27.01Q159.14-27.01 156.40-21.43L156.40-21.43L156.40-21.43Q153.66-15.84 153.66-6.86" fill="#ffffff" stroke="none" stroke-width="none" transform="translate(-127.89501953125,17.510405176336118)" style="fill: rgb(255, 255, 255);"></path></g><g class="path" style="transform: scale(0.91); transform-origin: 60.265px -5.8096px; animation: 0.714286s linear -0.171429s infinite normal forwards running breath-7dfc6c59-3f39-411e-a23c-532446f4716c;"><path d="M190.97-2.63L190.97-2.63L190.97-2.63Q190.02-1.39 188.38-0.36L188.38-0.36L188.38-0.36Q186.73 0.66 184.11 0.66L184.11 0.66L184.11 0.66Q181.48 0.66 179.65-1.02L179.65-1.02L179.65-1.02Q177.83-2.70 177.83-5.77L177.83-5.77L177.83-5.77Q177.83-6.35 177.97-7.66L177.97-7.66L182.72-33.95L182.72-33.95Q184.03-41.17 186.33-44.24L186.33-44.24L186.33-44.24Q188.63-47.30 192.43-47.30L192.43-47.30L192.43-47.30Q195.06-47.30 196.77-45.33L196.77-45.33L196.77-45.33Q198.49-43.36 198.49-39.35L198.49-39.35L198.49-39.35Q198.49-35.33 195.38-27.89L195.38-27.89L195.38-27.89Q192.28-20.44 192.28-17.01L192.28-17.01L190.97-17.01L190.97-17.01Q190.97-20.88 194.03-28.07L194.03-28.07L194.03-28.07Q197.10-35.26 197.10-39.57L197.10-39.57L197.10-39.57Q197.10-42.19 195.90-44.09L195.90-44.09L195.90-44.09Q194.69-45.99 192.94-45.99L192.94-45.99L192.94-45.99Q192.87-44.09 190.42-28.94L190.42-28.94L190.42-28.94Q187.97-13.80 185.57-0.80L185.57-0.80L185.57-0.80Q187.61-0.80 189.36-2.92L189.36-2.92L189.36-2.92Q191.11-5.04 191.84-7.15L191.84-7.15L192.65-9.34L193.96-8.76L193.96-8.76Q193.74-7.74 192.83-5.80L192.83-5.80L192.83-5.80Q191.92-3.87 190.97-2.63" fill="#ffffff" stroke="none" stroke-width="none" transform="translate(-127.89501953125,17.510405176336118)" style="fill: rgb(255, 255, 255);"></path></g><g class="path" style="transform: scale(0.91); transform-origin: 77.415px 3.6404px; animation: 0.714286s linear -0.128571s infinite normal forwards running breath-7dfc6c59-3f39-411e-a23c-532446f4716c;"><path d="M211.41-1.97L211.41-1.97Q209.22 0.66 205.93 0.66L205.93 0.66L205.93 0.66Q202.65 0.66 200.79-1.02L200.79-1.02L200.79-1.02Q198.92-2.70 198.92-5.40L198.92-5.40L198.92-5.40Q198.92-6.35 200.09-13.36L200.09-13.36L202.50-26.43L199.44-26.43L199.58-27.74L202.72-27.74L202.72-27.74Q208.12-27.74 210.68-28.18L210.68-28.18L211.70-28.40L206.66-0.80L206.66-0.80Q208.85-1.02 210.31-2.85L210.31-2.85L211.41-1.97" fill="#ffffff" stroke="none" stroke-width="none" transform="translate(-127.89501953125,17.510405176336118)" style="fill: rgb(255, 255, 255);"></path></g><g class="path" style="transform: scale(0.91); transform-origin: 80.85px -21.6546px; animation: 0.714286s linear -0.0857143s infinite normal forwards running breath-7dfc6c59-3f39-411e-a23c-532446f4716c;"><path d="M204.98-35.41L204.98-35.41L204.98-35.41Q203.45-36.94 203.45-39.13L203.45-39.13L203.45-39.13Q203.45-41.32 204.98-42.89L204.98-42.89L204.98-42.89Q206.52-44.46 208.71-44.46L208.71-44.46L208.71-44.46Q210.90-44.46 212.47-42.89L212.47-42.89L212.47-42.89Q214.04-41.32 214.04-39.13L214.04-39.13L214.04-39.13Q214.04-36.94 212.47-35.41L212.47-35.41L212.47-35.41Q210.90-33.87 208.71-33.87L208.71-33.87L208.71-33.87Q206.52-33.87 204.98-35.41" fill="#ffffff" stroke="none" stroke-width="none" transform="translate(-127.89501953125,17.510405176336118)" style="fill: rgb(255, 255, 255);"></path></g><g class="path" style="transform: scale(0.91); transform-origin: 101.98px 3.6404px; animation: 0.714286s linear -0.0428571s infinite normal forwards running breath-7dfc6c59-3f39-411e-a23c-532446f4716c;"><path d="M227.03 0.66L227.03 0.66Q221.41 0.66 218.49-2.15L218.49-2.15L218.49-2.15Q215.57-4.96 215.57-9.23L215.57-9.23L215.57-9.23Q215.57-13.50 216.34-16.53L216.34-16.53L216.34-16.53Q217.10-19.56 218.85-22.37L218.85-22.37L218.85-22.37Q220.61-25.18 224.15-26.79L224.15-26.79L224.15-26.79Q227.69-28.40 232.98-28.40L232.98-28.40L232.98-28.40Q238.27-28.40 241.23-25.59L241.23-25.59L241.23-25.59Q244.18-22.78 244.18-17.88L244.18-17.88L244.18-17.88Q244.18-9.56 239.77-4.45L239.77-4.45L239.77-4.45Q235.35 0.66 227.03 0.66L227.03 0.66zM223.82-6.86L223.82-6.86L223.82-6.86Q223.82-1.02 227.21-1.02L227.21-1.02L227.21-1.02Q230.61-1.02 233.27-6.90L233.27-6.90L233.27-6.90Q235.94-12.77 235.94-20.88L235.94-20.88L235.94-20.88Q235.94-27.01 232.61-27.01L232.61-27.01L232.61-27.01Q229.29-27.01 226.56-21.43L226.56-21.43L226.56-21.43Q223.82-15.84 223.82-6.86" fill="#ffffff" stroke="none" stroke-width="none" transform="translate(-127.89501953125,17.510405176336118)" style="fill: rgb(255, 255, 255);"></path></g><g class="path" style="transform: scale(0.91); transform-origin: 125.305px 12.8004px; animation: 0.714286s linear 0s infinite normal forwards running breath-7dfc6c59-3f39-411e-a23c-532446f4716c;"><path d="M249.44-0.95L249.44-0.95L249.44-0.95Q247.91-2.48 247.91-4.67L247.91-4.67L247.91-4.67Q247.91-6.86 249.44-8.43L249.44-8.43L249.44-8.43Q250.97-10.00 253.16-10.00L253.16-10.00L253.16-10.00Q255.35-10.00 256.92-8.43L256.92-8.43L256.92-8.43Q258.49-6.86 258.49-4.67L258.49-4.67L258.49-4.67Q258.49-2.48 256.92-0.95L256.92-0.95L256.92-0.95Q255.35 0.58 253.16 0.58L253.16 0.58L253.16 0.58Q250.97 0.58 249.44-0.95" fill="#ffffff" stroke="none" stroke-width="none" transform="translate(-127.89501953125,17.510405176336118)" style="fill: rgb(255, 255, 255);"></path></g></g>
</g>
</g>
<style id="breath-7dfc6c59-3f39-411e-a23c-532446f4716c" data-anikit="">@keyframes breath-7dfc6c59-3f39-411e-a23c-532446f4716c
{
  0% {
    animation-timing-function: cubic-bezier(0.9647,0.2413,-0.0705,0.7911);
    transform: scale(0.9099999999999999);
  }
  51% {
    animation-timing-function: cubic-bezier(0.9226,0.2631,-0.0308,0.7628);
    transform: scale(1.02994);
  }
  100% {
    transform: scale(0.9099999999999999);
  }
}</style></svg>